<svg xmlns="http://www.w3.org/2000/svg" width="32" height="32" viewBox="0 0 32 32"><g transform="translate(0 0)"><g transform="translate(10.76 0)"><path d="M191.2,2.2a7.5,7.5,0,0,0-10.607,0l-6.268,6.268a7.571,7.571,0,0,0,0,10.607,7.138,7.138,0,0,0,1.508,1.144l1.144-1.144a2.576,2.576,0,0,0,.473-2.261,3.62,3.62,0,0,1-.473-.391,3.79,3.79,0,0,1,0-5.3l6.268-6.268a3.75,3.75,0,1,1,5.3,5.3l-4.143,4.143a10.793,10.793,0,0,1,.469,4.824c.018-.018.04-.029.058-.047L191.2,12.8A7.5,7.5,0,0,0,191.2,2.2Z" transform="translate(-172.159 0)" fill="#fff"/></g><g transform="translate(0 11.298)"><path d="M19.558,181.92a7.139,7.139,0,0,0-1.508-1.144l-1.144,1.144a2.575,2.575,0,0,0-.473,2.261,3.613,3.613,0,0,1,.473.391,3.79,3.79,0,0,1,0,5.3l-6.754,6.754a3.75,3.75,0,1,1-5.3-5.3L9.478,186.7a10.792,10.792,0,0,1-.469-4.824c-.018.018-.04.029-.058.047L2.2,188.674A7.5,7.5,0,0,0,12.8,199.281l6.754-6.754A7.567,7.567,0,0,0,19.558,181.92Z" transform="translate(0 -180.776)" fill="#fff"/></g></g></svg>